<svg xmlns="http://www.w3.org/2000/svg" version="1.1" xmlns:xlink="http://www.w3.org/1999/xlink" xmlns:svgjs="http://svgjs.dev/svgjs" width="1000" height="999" viewBox="0 0 1000 999"><g transform="matrix(1,0,0,1,-0.215743440233382,-0.21552769679306039)"><svg viewBox="0 0 343 343" data-background-color="#ffffff" preserveAspectRatio="xMidYMid meet" height="999" width="1000" xmlns="http://www.w3.org/2000/svg" xmlns:xlink="http://www.w3.org/1999/xlink"><g id="tight-bounds" transform="matrix(1,0,0,1,0.0740000000000407,0.07400000000001228)"><svg viewBox="0 0 342.85155851775386 342.85155851775386" height="342.85155851775386" width="342.85155851775386"><g><svg></svg></g><g><svg viewBox="0 0 342.85155851775386 342.85155851775386" height="342.85155851775386" width="342.85155851775386"><g><path d="M0 171.426c0-94.676 76.75-171.426 171.426-171.426 94.676 0 171.426 76.75 171.426 171.426 0 94.676-76.75 171.426-171.426 171.426-94.676 0-171.426-76.75-171.426-171.426zM171.426 340.495c93.374 0 169.069-75.695 169.069-169.069 0-93.374-75.695-169.069-169.069-169.07-93.374 0-169.069 75.695-169.07 169.07 0 93.374 75.695 169.069 169.07 169.069z" data-fill-palette-color="tertiary" fill="#085f63" stroke="transparent"></path><ellipse rx="164.56874808852186" ry="164.56874808852186" cx="171.42577925887693" cy="171.42577925887693" fill="#085f63" stroke="transparent" stroke-width="0" fill-opacity="1" data-fill-palette-color="tertiary"></ellipse></g><g transform="matrix(1,0,0,1,64.84655864529837,137.22070835538392)"><svg viewBox="0 0 213.1584412271571 68.410141806986" height="68.410141806986" width="213.1584412271571"><g><svg viewBox="0 0 213.1584412271571 68.410141806986" height="68.410141806986" width="213.1584412271571"><g><svg viewBox="0 0 213.1584412271571 68.410141806986" height="68.410141806986" width="213.1584412271571"><g transform="matrix(1,0,0,1,0,42.28021211549271)"><svg viewBox="0 0 213.1584412271571 26.129929691493295" height="26.129929691493295" width="213.1584412271571"><g id="textblocktransform"><svg viewBox="0 0 213.1584412271571 26.129929691493295" height="26.129929691493295" width="213.1584412271571" id="textblock"><g><svg viewBox="0 0 213.1584412271571 26.129929691493295" height="26.129929691493295" width="213.1584412271571"><g transform="matrix(1,0,0,1,0,0)"><svg width="213.1584412271571" viewBox="4.050000190734863 -39.849998474121094 413.96002197265625 50.75" height="26.129929691493295" data-palette-color="#ffffff"><path d="M4.05-34.55L10.65-34.55 10.65 0 4.05 0 4.05-34.55ZM32.65-27.2Q36.2-27.2 38.17-25.08 40.15-22.95 40.15-19.15L40.15-19.15 40.15 0 33.75 0 33.75-18.15Q33.75-20.5 32.92-21.45 32.1-22.4 30.5-22.4L30.5-22.4Q28.85-22.4 27.52-21.38 26.2-20.35 24.95-18.4L24.95-18.4 24.95 0 18.55 0 18.55-26.45 24.1-26.45 24.6-23Q27.85-27.2 32.65-27.2L32.65-27.2ZM58.25-27.2Q60.85-27.2 62.92-26.45 65-25.7 66.84-24.1L66.84-24.1 64-20.25Q62.65-21.25 61.4-21.7 60.15-22.15 58.65-22.15L58.65-22.15Q52.7-22.15 52.7-13.1L52.7-13.1Q52.7-8.5 54.25-6.48 55.8-4.45 58.65-4.45L58.65-4.45Q60.05-4.45 61.22-4.9 62.4-5.35 64-6.35L64-6.35 66.84-2.3Q63.1 0.75 58.3 0.75L58.3 0.75Q54.5 0.75 51.7-0.93 48.9-2.6 47.4-5.7 45.9-8.8 45.9-13L45.9-13Q45.9-17.2 47.4-20.43 48.9-23.65 51.7-25.43 54.5-27.2 58.25-27.2L58.25-27.2ZM71.49-26.45L77.89-26.45 77.89 0 71.49 0 71.49-26.45ZM74.64-39.85Q76.44-39.85 77.57-38.73 78.69-37.6 78.69-35.95L78.69-35.95Q78.69-34.3 77.57-33.2 76.44-32.1 74.64-32.1L74.64-32.1Q72.89-32.1 71.77-33.2 70.64-34.3 70.64-35.95L70.64-35.95Q70.64-37.6 71.77-38.73 72.89-39.85 74.64-39.85L74.64-39.85ZM101.44-37.75L107.84-37.05 107.84 0 102.19 0 101.74-3.35Q100.49-1.45 98.57-0.35 96.64 0.75 94.19 0.75L94.19 0.75Q89.34 0.75 86.74-3 84.14-6.75 84.14-13.2L84.14-13.2Q84.14-17.25 85.44-20.43 86.74-23.6 89.17-25.4 91.59-27.2 94.79-27.2L94.79-27.2Q98.59-27.2 101.44-24.35L101.44-24.35 101.44-37.75ZM95.99-4.1Q97.69-4.1 98.99-4.93 100.29-5.75 101.44-7.5L101.44-7.5 101.44-19.6Q100.29-21 99.12-21.7 97.94-22.4 96.39-22.4L96.39-22.4Q93.84-22.4 92.37-20.13 90.89-17.85 90.89-13.25L90.89-13.25Q90.89-8.35 92.19-6.23 93.49-4.1 95.99-4.1L95.99-4.1ZM137.24-13.85Q137.24-13.35 137.09-11.25L137.09-11.25 120.49-11.25Q120.79-7.4 122.49-5.75 124.19-4.1 126.99-4.1L126.99-4.1Q128.74-4.1 130.29-4.67 131.84-5.25 133.59-6.45L133.59-6.45 136.24-2.8Q131.84 0.75 126.44 0.75L126.44 0.75Q120.39 0.75 117.11-2.95 113.84-6.65 113.84-13.05L113.84-13.05Q113.84-17.1 115.24-20.33 116.64-23.55 119.29-25.38 121.94-27.2 125.59-27.2L125.59-27.2Q131.14-27.2 134.19-23.68 137.24-20.15 137.24-13.85L137.24-13.85ZM130.89-15.4L130.89-15.7Q130.89-22.65 125.74-22.65L125.74-22.65Q123.39-22.65 122.06-20.93 120.74-19.2 120.49-15.4L120.49-15.4 130.89-15.4ZM157.09-27.2Q160.64-27.2 162.61-25.08 164.59-22.95 164.59-19.15L164.59-19.15 164.59 0 158.19 0 158.19-18.15Q158.19-20.5 157.36-21.45 156.54-22.4 154.94-22.4L154.94-22.4Q153.29-22.4 151.96-21.38 150.64-20.35 149.39-18.4L149.39-18.4 149.39 0 142.99 0 142.99-26.45 148.54-26.45 149.04-23Q152.29-27.2 157.09-27.2L157.09-27.2ZM182.68-27.2Q185.28-27.2 187.36-26.45 189.43-25.7 191.28-24.1L191.28-24.1 188.43-20.25Q187.08-21.25 185.83-21.7 184.58-22.15 183.08-22.15L183.08-22.15Q177.13-22.15 177.13-13.1L177.13-13.1Q177.13-8.5 178.68-6.48 180.23-4.45 183.08-4.45L183.08-4.45Q184.48-4.45 185.66-4.9 186.83-5.35 188.43-6.35L188.43-6.35 191.28-2.3Q187.53 0.75 182.73 0.75L182.73 0.75Q178.93 0.75 176.13-0.93 173.33-2.6 171.83-5.7 170.33-8.8 170.33-13L170.33-13Q170.33-17.2 171.83-20.43 173.33-23.65 176.13-25.43 178.93-27.2 182.68-27.2L182.68-27.2ZM217.63-13.85Q217.63-13.35 217.48-11.25L217.48-11.25 200.88-11.25Q201.18-7.4 202.88-5.75 204.58-4.1 207.38-4.1L207.38-4.1Q209.13-4.1 210.68-4.67 212.23-5.25 213.98-6.45L213.98-6.45 216.63-2.8Q212.23 0.75 206.83 0.75L206.83 0.75Q200.78 0.75 197.51-2.95 194.23-6.65 194.23-13.05L194.23-13.05Q194.23-17.1 195.63-20.33 197.03-23.55 199.68-25.38 202.33-27.2 205.98-27.2L205.98-27.2Q211.53-27.2 214.58-23.68 217.63-20.15 217.63-13.85L217.63-13.85ZM211.28-15.4L211.28-15.7Q211.28-22.65 206.13-22.65L206.13-22.65Q203.78-22.65 202.46-20.93 201.13-19.2 200.88-15.4L200.88-15.4 211.28-15.4ZM246.03-35.3Q249.68-35.3 252.38-34.25 255.08-33.2 257.43-31.05L257.43-31.05 254.18-27.3Q252.33-28.85 250.45-29.55 248.58-30.25 246.43-30.25L246.43-30.25Q244.03-30.25 242.55-29.18 241.08-28.1 241.08-26.15L241.08-26.15Q241.08-24.85 241.65-24 242.23-23.15 243.73-22.4 245.23-21.65 248.18-20.75L248.18-20.75Q253.28-19.15 255.85-16.78 258.43-14.4 258.43-9.85L258.43-9.85Q258.43-6.75 256.85-4.35 255.28-1.95 252.33-0.6 249.38 0.75 245.33 0.75L245.33 0.75Q241.38 0.75 238.25-0.53 235.13-1.8 232.88-4L232.88-4 236.28-7.8Q238.28-6.1 240.43-5.23 242.58-4.35 245.18-4.35L245.18-4.35Q248.03-4.35 249.78-5.7 251.53-7.05 251.53-9.5L251.53-9.5Q251.53-11 250.93-11.98 250.33-12.95 248.88-13.73 247.43-14.5 244.68-15.35L244.68-15.35Q239.18-17.05 236.73-19.45 234.28-21.85 234.28-25.75L234.28-25.75Q234.28-28.6 235.78-30.75 237.28-32.9 239.95-34.1 242.63-35.3 246.03-35.3L246.03-35.3ZM285.57-13.85Q285.57-13.35 285.42-11.25L285.42-11.25 268.82-11.25Q269.12-7.4 270.82-5.75 272.52-4.1 275.32-4.1L275.32-4.1Q277.07-4.1 278.62-4.67 280.17-5.25 281.92-6.45L281.92-6.45 284.57-2.8Q280.17 0.75 274.77 0.75L274.77 0.75Q268.72 0.75 265.45-2.95 262.17-6.65 262.17-13.05L262.17-13.05Q262.17-17.1 263.57-20.33 264.97-23.55 267.62-25.38 270.27-27.2 273.92-27.2L273.92-27.2Q279.47-27.2 282.52-23.68 285.57-20.15 285.57-13.85L285.57-13.85ZM279.22-15.4L279.22-15.7Q279.22-22.65 274.07-22.65L274.07-22.65Q271.72-22.65 270.4-20.93 269.07-19.2 268.82-15.4L268.82-15.4 279.22-15.4ZM301.97-27.2Q304.57-27.2 306.65-26.45 308.72-25.7 310.57-24.1L310.57-24.1 307.72-20.25Q306.37-21.25 305.12-21.7 303.87-22.15 302.37-22.15L302.37-22.15Q296.42-22.15 296.42-13.1L296.42-13.1Q296.42-8.5 297.97-6.48 299.52-4.45 302.37-4.45L302.37-4.45Q303.77-4.45 304.95-4.9 306.12-5.35 307.72-6.35L307.72-6.35 310.57-2.3Q306.82 0.75 302.02 0.75L302.02 0.75Q298.22 0.75 295.42-0.93 292.62-2.6 291.12-5.7 289.62-8.8 289.62-13L289.62-13Q289.62-17.2 291.12-20.43 292.62-23.65 295.42-25.43 298.22-27.2 301.97-27.2L301.97-27.2ZM336.37-26.45L336.37 0 330.82 0 330.47-3.7Q329.02-1.45 327.04-0.35 325.07 0.75 322.37 0.75L322.37 0.75Q318.82 0.75 316.89-1.43 314.97-3.6 314.97-7.45L314.97-7.45 314.97-26.45 321.37-26.45 321.37-8.25Q321.37-6 322.14-5.05 322.92-4.1 324.62-4.1L324.62-4.1Q327.67-4.1 329.97-7.85L329.97-7.85 329.97-26.45 336.37-26.45ZM357.12-27.15Q358.57-27.15 359.77-26.8L359.77-26.8 358.67-20.6Q357.47-20.9 356.32-20.9L356.32-20.9Q353.97-20.9 352.62-19.23 351.27-17.55 350.47-14.1L350.47-14.1 350.47 0 344.07 0 344.07-26.45 349.62-26.45 350.22-21.25Q351.17-24.1 352.97-25.63 354.77-27.15 357.12-27.15L357.12-27.15ZM363.76-26.45L370.16-26.45 370.16 0 363.76 0 363.76-26.45ZM366.91-39.85Q368.71-39.85 369.84-38.73 370.96-37.6 370.96-35.95L370.96-35.95Q370.96-34.3 369.84-33.2 368.71-32.1 366.91-32.1L366.91-32.1Q365.16-32.1 364.04-33.2 362.91-34.3 362.91-35.95L362.91-35.95Q362.91-37.6 364.04-38.73 365.16-39.85 366.91-39.85L366.91-39.85ZM390.76-5.35L393.01-1.25Q391.61-0.25 389.89 0.25 388.16 0.75 386.36 0.75L386.36 0.75Q382.46 0.7 380.44-1.48 378.41-3.65 378.41-7.9L378.41-7.9 378.41-21.85 374.26-21.85 374.26-26.45 378.41-26.45 378.41-32.3 384.81-33.05 384.81-26.45 390.96-26.45 390.31-21.85 384.81-21.85 384.81-8.05Q384.81-6.1 385.49-5.25 386.16-4.4 387.61-4.4L387.61-4.4Q389.06-4.4 390.76-5.35L390.76-5.35ZM418.01-26.45L409.41 0.1Q407.81 5 404.56 7.73 401.31 10.45 395.66 10.9L395.66 10.9 395.01 6.25Q397.61 5.85 399.18 5.13 400.76 4.4 401.71 3.2 402.66 2 403.46 0L403.46 0 401.26 0 392.86-26.45 399.66-26.45 405.41-4.25 411.41-26.45 418.01-26.45Z" opacity="1" transform="matrix(1,0,0,1,0,0)" fill="#ffffff" class="undefined-text-0" data-fill-palette-color="quaternary" id="text-0"></path></svg></g></svg></g></svg></g></svg></g><g transform="matrix(1,0,0,1,90.86888619463554,0)"><svg viewBox="0 0 31.420668837886026 36.11156283364374" height="36.11156283364374" width="31.420668837886026"><g><svg xmlns="http://www.w3.org/2000/svg" xmlns:xlink="http://www.w3.org/1999/xlink" version="1.1" x="0" y="0" viewBox="6.607999801635742 0 87.00999450683594 100" enable-background="new 0 0 100 100" xml:space="preserve" height="36.11156283364374" width="31.420668837886026" class="icon-icon-0" data-fill-palette-color="quaternary" id="icon-0"><path d="M50.171 6.288c11.637 8.013 30.191 11.898 38.101 13.26 0.301 2.772 0.455 5.527 0.455 8.223 0 27.634-14.728 52.93-38.612 66.642C26.229 80.697 11.5 55.402 11.5 27.771c0-2.669 0.154-5.403 0.455-8.17C20.031 18.318 38.946 14.568 50.171 6.288M50.039 0C38.216 11.699 7.588 15.281 7.588 15.281c-0.628 4.078-0.98 8.24-0.98 12.49 0 31.327 17.64 58.512 43.506 72.229 25.87-13.718 43.504-40.902 43.504-72.229 0-4.25-0.346-8.412-0.973-12.49C92.646 15.281 62.822 11.34 50.039 0L50.039 0z" fill="#ffffff" data-fill-palette-color="quaternary"></path><path d="M20.738 26.015c-0.435 2.824-0.677 5.702-0.677 8.638 0 21.633 12.19 40.407 30.053 49.882 17.864-9.476 30.052-28.249 30.052-49.882 0-2.936-0.247-5.814-0.674-8.638 0 0-20.602-2.719-29.432-10.551C41.892 23.542 20.738 26.015 20.738 26.015z" fill="#ffffff" data-fill-palette-color="quaternary"></path></svg></g></svg></g><g></g></svg></g></svg></g></svg></g></svg></g><defs></defs></svg><rect width="342.85155851775386" height="342.85155851775386" fill="none" stroke="none" visibility="hidden"></rect></g></svg></g></svg>