<svg xmlns="http://www.w3.org/2000/svg" version="1.1" xmlns:xlink="http://www.w3.org/1999/xlink" xmlns:svgjs="http://svgjs.dev/svgjs" width="1000" height="1000" viewBox="0 0 1000 1000"><rect width="1000" height="1000" fill="#636365"></rect><g transform="matrix(0.7,0,0,0.7,149.57575762573816,381.2146086258955)"><svg viewBox="0 0 396 135" data-background-color="#636365" preserveAspectRatio="xMidYMid meet" height="340" width="1000" xmlns="http://www.w3.org/2000/svg" xmlns:xlink="http://www.w3.org/1999/xlink"><g id="tight-bounds" transform="matrix(1,0,0,1,0.24000002827483513,-0.12173178359617509)"><svg viewBox="0 0 395.52 135.24337061201018" height="135.24337061201018" width="395.52"><g><svg viewBox="0 0 631.9647627002454 216.0928514755268" height="135.24337061201018" width="395.52"><g transform="matrix(1,0,0,1,0,78.18284759023344)"><svg viewBox="0 0 395.52 59.72715629505993" height="59.72715629505993" width="395.52"><g id="textblocktransform"><svg viewBox="0 0 395.52 59.72715629505993" height="59.72715629505993" width="395.52" id="textblock"><g><svg viewBox="0 0 395.52 34.48365988023953" height="34.48365988023953" width="395.52"><g transform="matrix(1,0,0,1,0,0)"><svg width="395.52" viewBox="3.4000000953674316 -35.70000076293945 417.4599914550781 36.400001525878906" height="34.48365988023953" data-palette-color="#ffffff"><path d="M3.4 0L3.4-35 8.65-35 8.65 0 3.4 0ZM15.35 0L15.35-35 21-35 33.85-11.05 33.85-35 39.05-35 39.05 0 34.35 0 20.6-25.4 20.6 0 15.35 0ZM59.6 0.7Q54.95 0.7 51.4-1.53 47.85-3.75 45.85-7.88 43.85-12 43.85-17.5L43.85-17.5Q43.85-22.95 45.87-27.1 47.9-31.25 51.47-33.48 55.05-35.7 59.55-35.7L59.55-35.7Q63.7-35.7 67.25-34.15L67.25-34.15 66.65-29.05Q65.05-29.85 63.57-30.25 62.1-30.65 60.4-30.65L60.4-30.65Q55.3-30.65 52.47-27.03 49.65-23.4 49.65-17.5L49.65-17.5Q49.65-11.6 52.47-7.98 55.3-4.35 60.4-4.35L60.4-4.35Q63.5-4.35 66.65-5.85L66.65-5.85 67.25-0.8Q64 0.7 59.6 0.7L59.6 0.7ZM71.94 0L71.94-35 77.19-35 77.19 0 71.94 0ZM83.89 0L83.89-35 95.14-35Q99.44-35 102.82-32.9 106.19-30.8 108.09-26.85 109.99-22.9 109.99-17.5L109.99-17.5Q109.99-12.1 108.09-8.15 106.19-4.2 102.82-2.1 99.44 0 95.14 0L95.14 0 83.89 0ZM89.14-4.8L94.69-4.8Q99.34-4.8 101.77-8.13 104.19-11.45 104.19-17.5L104.19-17.5Q104.19-23.55 101.77-26.88 99.34-30.2 94.69-30.2L94.69-30.2 89.14-30.2 89.14-4.8ZM114.84 0L114.84-35 133.99-35 133.99-30.2 120.09-30.2 120.09-20.7 130.94-20.7 130.94-15.9 120.09-15.9 120.09-4.8 134.39-4.8 134.39 0 114.84 0ZM139.14 0L139.14-35 144.79-35 157.64-11.05 157.64-35 162.84-35 162.84 0 158.14 0 144.39-25.4 144.39 0 139.14 0ZM183.38 0.7Q178.73 0.7 175.18-1.53 171.63-3.75 169.63-7.88 167.63-12 167.63-17.5L167.63-17.5Q167.63-22.95 169.66-27.1 171.68-31.25 175.26-33.48 178.83-35.7 183.33-35.7L183.33-35.7Q187.48-35.7 191.03-34.15L191.03-34.15 190.43-29.05Q188.83-29.85 187.36-30.25 185.88-30.65 184.18-30.65L184.18-30.65Q179.08-30.65 176.26-27.03 173.43-23.4 173.43-17.5L173.43-17.5Q173.43-11.6 176.26-7.98 179.08-4.35 184.18-4.35L184.18-4.35Q187.28-4.35 190.43-5.85L190.43-5.85 191.03-0.8Q187.78 0.7 183.38 0.7L183.38 0.7ZM195.63 0L195.63-35 214.78-35 214.78-30.2 200.88-30.2 200.88-20.7 211.73-20.7 211.73-15.9 200.88-15.9 200.88-4.8 215.18-4.8 215.18 0 195.63 0ZM238.13 0.7Q235.58 0.7 232.9 0.13 230.23-0.45 228.43-1.35L228.43-1.35 229.08-7.15Q233.83-4.35 238.58-4.35L238.58-4.35Q241.38-4.35 242.95-5.48 244.53-6.6 244.53-8.75L244.53-8.75Q244.53-11.05 242.9-12.5 241.28-13.95 237.18-15.75L237.18-15.75Q234.03-17.15 232.13-18.45 230.23-19.75 229.18-21.6 228.13-23.45 228.13-26.1L228.13-26.1Q228.13-28.95 229.58-31.13 231.03-33.3 233.65-34.5 236.28-35.7 239.78-35.7L239.78-35.7Q244.53-35.7 248.63-33.75L248.63-33.75 248.08-28.2Q243.63-30.65 239.38-30.65L239.38-30.65Q236.73-30.65 235.28-29.6 233.83-28.55 233.83-26.35L233.83-26.35Q233.83-24.8 234.68-23.75 235.53-22.7 236.93-21.93 238.33-21.15 241.43-19.7L241.43-19.7Q245.98-17.55 248.08-15.18 250.18-12.8 250.18-9.15L250.18-9.15Q250.18-4.6 246.98-1.95 243.78 0.7 238.13 0.7L238.13 0.7ZM254.72 0L254.72-35 273.87-35 273.87-30.2 259.97-30.2 259.97-20.7 270.82-20.7 270.82-15.9 259.97-15.9 259.97-4.8 274.27-4.8 274.27 0 254.72 0ZM292.37 0.7Q287.72 0.7 284.17-1.53 280.62-3.75 278.62-7.88 276.62-12 276.62-17.5L276.62-17.5Q276.62-22.95 278.64-27.1 280.67-31.25 284.25-33.48 287.82-35.7 292.32-35.7L292.32-35.7Q296.47-35.7 300.02-34.15L300.02-34.15 299.42-29.05Q297.82-29.85 296.35-30.25 294.87-30.65 293.17-30.65L293.17-30.65Q288.07-30.65 285.25-27.03 282.42-23.4 282.42-17.5L282.42-17.5Q282.42-11.6 285.25-7.98 288.07-4.35 293.17-4.35L293.17-4.35Q296.27-4.35 299.42-5.85L299.42-5.85 300.02-0.8Q296.77 0.7 292.37 0.7L292.37 0.7ZM316.77 0.7Q310.47 0.7 307.37-3.08 304.27-6.85 304.27-13.7L304.27-13.7 304.27-35 309.52-35 309.52-15.15Q309.52-9.9 310.99-7.13 312.47-4.35 316.77-4.35L316.77-4.35Q319.72-4.35 321.32-5.73 322.92-7.1 323.47-9.43 324.02-11.75 324.02-15.15L324.02-15.15 324.02-35 329.27-35 329.27-13.7Q329.27-6.85 326.17-3.08 323.07 0.7 316.77 0.7L316.77 0.7ZM335.61 0L335.61-35 345.11-35Q350.61-35 353.71-32.3 356.81-29.6 356.81-24.25L356.81-24.25Q356.81-21.15 355.44-18.7 354.06-16.25 351.61-14.9L351.61-14.9 358.46 0 352.41 0 346.41-13.4Q346.11-13.35 345.26-13.35L345.26-13.35 340.86-13.35 340.86 0 335.61 0ZM340.86-18L344.66-18Q348.06-18 349.71-19.53 351.36-21.05 351.36-24.15L351.36-24.15Q351.36-27.3 349.71-28.83 348.06-30.35 344.66-30.35L344.66-30.35 340.86-30.35 340.86-18ZM362.56 0L362.56-35 367.81-35 367.81 0 362.56 0ZM380.51 0L380.51-30.2 371.91-30.2 371.91-35 394.31-35 394.31-30.2 385.71-30.2 385.71 0 380.51 0ZM415.16-35L420.86-35 410.46-15.3 410.46 0 405.26 0 405.26-15.3 394.81-35 400.51-35 407.86-20.5 415.16-35Z" opacity="1" transform="matrix(1,0,0,1,0,0)" fill="#ffffff" class="undefined-text-0" data-fill-palette-color="primary" id="text-0"></path></svg></g></svg></g><g transform="matrix(1,0,0,1,163.310208,42.62442437012696)"><svg viewBox="0 0 232.209792 17.102731924932975" height="17.102731924932975" width="232.209792"><g transform="matrix(1,0,0,1,0,0)"><svg width="232.209792" viewBox="5.199999809265137 -36.400001525878906 671.3300170898438 49.45000076293945" height="17.102731924932975" data-palette-color="#ffffff"><path d="M5.2-0.05L5.2-34.25 26.8-34.25 26.8-32.25 7.3-32.25 7.3-19.2 21.65-19.2 21.65-17.2 7.3-17.2 7.3-2.05 27.8-2.05 27.8-0.05 5.2-0.05ZM33.95-17.7Q33.95-21.5 32.05-23.75L32.05-23.75 33.3-25Q34.45-24.05 35.02-22.85 35.6-21.65 35.85-19.9L35.85-19.9Q38.5-25.25 44-25.25L44-25.25Q46.7-25.25 48.5-23.93 50.3-22.6 51.05-20L51.05-20Q52.4-22.6 54.55-23.93 56.7-25.25 59.3-25.25L59.3-25.25Q62.65-25.25 64.7-23.18 66.75-21.1 66.7-17.4L66.7-17.4 66.5-0.05 64.5-0.05 64.6-16.85Q64.6-19.95 63.25-21.65 61.9-23.35 59.05-23.35L59.05-23.35Q54.1-23.35 51.35-18L51.35-18 51.35-0.05 49.25-0.05 49.25-16.85Q49.25-19.85 47.87-21.6 46.5-23.35 43.85-23.35L43.85-23.35Q41.3-23.35 39.12-21.8 36.95-20.25 36.05-18.05L36.05-18.05 36.05-0.05 33.95-0.05 33.95-17.7ZM84.9-25.25Q88.35-25.25 90.75-23.55 93.15-21.85 94.35-18.98 95.55-16.1 95.55-12.55L95.55-12.55Q95.55-8.7 94.12-5.78 92.7-2.85 89.97-1.2 87.25 0.45 83.45 0.45L83.45 0.45Q81.45 0.45 77-0.15L77-0.15 77 13 74.9 13 74.9-18.05Q74.9-20.25 74.45-21.53 74-22.8 73.05-24L73.05-24 74.45-25.35Q75.5-24.35 76.17-23.05 76.85-21.75 76.95-20.35L76.95-20.35Q78-22.9 80.07-24.08 82.15-25.25 84.9-25.25L84.9-25.25ZM83.2-1.45Q88.15-1.45 90.8-4.42 93.45-7.4 93.45-12.25L93.45-12.25Q93.45-15.25 92.45-17.78 91.45-20.3 89.52-21.83 87.6-23.35 85.05-23.35L85.05-23.35Q83.1-23.35 81.32-22.48 79.55-21.6 78.35-20.03 77.15-18.45 77-16.45L77-16.45 77-1.95Q82-1.45 83.2-1.45L83.2-1.45ZM112.29 0.45Q108.74 0.45 106.02-1.15 103.29-2.75 101.77-5.65 100.24-8.55 100.24-12.3L100.24-12.3Q100.24-16.1 101.77-19.03 103.29-21.95 106.04-23.6 108.79-25.25 112.34-25.25L112.34-25.25Q115.89-25.25 118.64-23.63 121.39-22 122.92-19.07 124.44-16.15 124.44-12.35L124.44-12.35Q124.44-8.6 122.92-5.68 121.39-2.75 118.64-1.15 115.89 0.45 112.29 0.45L112.29 0.45ZM112.34-1.45Q115.29-1.45 117.57-2.85 119.84-4.25 121.09-6.78 122.34-9.3 122.34-12.55L122.34-12.55Q122.34-15.75 121.09-18.2 119.84-20.65 117.57-22 115.29-23.35 112.34-23.35L112.34-23.35Q109.39-23.35 107.12-21.98 104.84-20.6 103.59-18.1 102.34-15.6 102.34-12.35L102.34-12.35Q102.34-9.15 103.59-6.68 104.84-4.2 107.12-2.83 109.39-1.45 112.34-1.45L112.34-1.45ZM129.94-21.05Q129.74-21.8 129.09-22.58 128.44-23.35 127.64-23.9L127.64-23.9 128.69-25.55Q129.94-24.8 130.69-23.78 131.44-22.75 131.89-21.35L131.89-21.35 137.99-3 145.14-24.85 147.49-24.85 154.59-3 161.74-24.85 163.84-24.85 155.79-0.1 153.44-0.1 146.29-21.95 139.14-0.1 136.74-0.1 129.94-21.05ZM169.69-11.75Q169.69-8.05 171.51-4.73 173.34-1.4 178.84-1.4L178.84-1.4Q180.89-1.4 182.69-1.98 184.49-2.55 186.74-3.8L186.74-3.8 187.69-2.25Q185.74-0.95 183.39-0.23 181.04 0.5 178.54 0.5L178.54 0.5Q173.34 0.5 170.46-2.8 167.59-6.1 167.59-11.65L167.59-11.65Q167.59-15.6 168.94-18.7 170.29-21.8 172.76-23.53 175.24-25.25 178.59-25.25L178.59-25.25Q181.49-25.25 183.76-23.93 186.04-22.6 187.31-20.28 188.59-17.95 188.59-14.95L188.59-14.95Q188.59-14.05 188.39-11.75L188.39-11.75 169.69-11.75ZM169.79-13.65L186.39-13.65Q186.49-14.2 186.49-15.05L186.49-15.05Q186.49-17.45 185.41-19.38 184.34-21.3 182.54-22.38 180.74-23.45 178.59-23.45L178.59-23.45Q175.09-23.45 172.66-20.75 170.24-18.05 169.79-13.65L169.79-13.65ZM204.84-25.25Q205.54-25.25 207.44-24.9L207.44-24.9 207.44-23Q205.99-23.25 204.94-23.25L204.94-23.25Q202.09-23.25 200.34-21.85L200.34-21.85Q199.59-21.2 198.74-20.18 197.89-19.15 197.29-18L197.29-18 197.29-0.05 195.19-0.05 195.19-18.1Q195.19-20.3 194.74-21.58 194.29-22.85 193.34-24.05L193.34-24.05 194.74-25.4Q195.84-24.35 196.51-23.03 197.19-21.7 197.29-20.25L197.29-20.25Q197.94-21.55 198.84-22.6 199.74-23.65 200.64-24.2L200.64-24.2Q202.34-25.25 204.84-25.25L204.84-25.25ZM212.53 0L212.53-25 214.78-25 214.78 0 212.53 0ZM213.63-28.75Q212.83-28.75 212.33-29.25 211.83-29.75 211.83-30.55L211.83-30.55Q211.83-31.35 212.33-31.85 212.83-32.35 213.63-32.35L213.63-32.35Q214.43-32.35 214.96-31.85 215.48-31.35 215.48-30.55L215.48-30.55Q215.48-29.75 214.96-29.25 214.43-28.75 213.63-28.75L213.63-28.75ZM223.43-17.7Q223.43-21.5 221.53-23.75L221.53-23.75 222.78-25Q225.08-23.25 225.33-19.75L225.33-19.75Q227.08-22.6 229.21-23.93 231.33-25.25 234.48-25.25L234.48-25.25Q238.33-25.25 240.38-23.28 242.43-21.3 242.38-17.4L242.38-17.4 242.23-0.05 240.23-0.05 240.28-16.85Q240.28-23.35 234.23-23.35L234.23-23.35Q231.48-23.35 229.51-22.03 227.53-20.7 225.53-17.9L225.53-17.9 225.53-0.05 223.43-0.05 223.43-17.7ZM260.88 13.05Q255.38 13.05 252.43 10.93 249.48 8.8 249.48 3.8L249.48 3.8Q249.48 3 249.73 0.75L249.73 0.75Q249.83 0.2 249.93-0.8L249.93-0.8Q248.88-1.55 248.25-2.73 247.63-3.9 247.63-5.25L247.63-5.25Q247.63-6.65 248.33-8.08 249.03-9.5 250.78-10.25L250.78-10.25Q251.43-10.55 252.13-10.63 252.83-10.7 254.43-10.75L254.43-10.75Q252.13-13 252.13-16.75L252.13-16.75Q252.13-19.5 253.35-21.53 254.58-23.55 256.65-24.6 258.73-25.65 261.33-25.65L261.33-25.65Q263.23-25.65 264.83-24.95L264.83-24.95 272.93-24.95 272.93-23.1 267.63-23.4Q269.13-22.1 269.83-20.5 270.53-18.9 270.53-16.85L270.53-16.85Q270.53-12.75 268-10.45 265.48-8.15 261.33-8.15L261.33-8.15Q258.53-8.15 256.48-9.25L256.48-9.25Q255.38-9.35 254.38-9.35L254.38-9.35Q253.38-9.35 252.58-9.15L252.58-9.15Q251.48-8.85 250.6-7.83 249.73-6.8 249.73-5.3L249.73-5.3Q249.73-3.6 250.98-2.8 252.23-2 254.83-2L254.83-2 258.33-2.1 262.63-2.2Q267.73-2.2 270.65-0.43 273.58 1.35 273.58 5.05L273.58 5.05Q273.58 9.2 269.95 11.13 266.33 13.05 260.88 13.05L260.88 13.05ZM261.43-10.05Q264.73-10.05 266.58-12 268.43-13.95 268.43-16.8L268.43-16.8Q268.43-19.95 266.4-21.85 264.38-23.75 261.28-23.75L261.28-23.75Q258.08-23.75 256.15-21.8 254.23-19.85 254.23-16.8L254.23-16.8Q254.23-13.65 256.28-11.85 258.33-10.05 261.43-10.05L261.43-10.05ZM260.78 11.15Q265.48 11.15 268.48 9.7 271.48 8.25 271.48 5.15L271.48 5.15Q271.48-0.25 262.18-0.25L262.18-0.25Q260.98-0.25 259.08-0.15L259.08-0.15 256.03-0.1Q254.58-0.1 253.38-0.15 252.18-0.2 251.58-0.35L251.58-0.35Q251.63-0.1 251.63 0.65L251.63 0.65 251.58 3.2Q251.58 7.8 253.9 9.47 256.23 11.15 260.78 11.15L260.78 11.15ZM300.67-15L291.42-31.55Q290.92-32.5 289.82-32.6L289.82-32.6 289.82-34.75Q292.27-34.5 293.37-32.5L293.37-32.5 301.62-17.25 310.97-34.3 313.57-34.3 302.72-15.1 302.72-0.05 300.67-0.05 300.67-15ZM326.72 0.45Q323.17 0.45 320.44-1.15 317.72-2.75 316.19-5.65 314.67-8.55 314.67-12.3L314.67-12.3Q314.67-16.1 316.19-19.03 317.72-21.95 320.47-23.6 323.22-25.25 326.77-25.25L326.77-25.25Q330.32-25.25 333.07-23.63 335.82-22 337.35-19.07 338.87-16.15 338.87-12.35L338.87-12.35Q338.87-8.6 337.35-5.68 335.82-2.75 333.07-1.15 330.32 0.45 326.72 0.45L326.72 0.45ZM326.77-1.45Q329.72-1.45 332-2.85 334.27-4.25 335.52-6.78 336.77-9.3 336.77-12.55L336.77-12.55Q336.77-15.75 335.52-18.2 334.27-20.65 332-22 329.72-23.35 326.77-23.35L326.77-23.35Q323.82-23.35 321.55-21.98 319.27-20.6 318.02-18.1 316.77-15.6 316.77-12.35L316.77-12.35Q316.77-9.15 318.02-6.68 319.27-4.2 321.55-2.83 323.82-1.45 326.77-1.45L326.77-1.45ZM353.07 0.35Q344.87 0.35 344.87-7.5L344.87-7.5 344.87-25 346.97-25 347.02-8.05Q347.02-4.9 348.57-3.23 350.12-1.55 353.22-1.55L353.22-1.55Q355.97-1.55 357.92-2.93 359.87-4.3 361.87-7.1L361.87-7.1 361.87-25 363.97-25 363.97-7.15Q363.97-3.3 365.87-1.1L365.87-1.1 364.57 0.15Q363.32-0.8 362.67-2.38 362.02-3.95 362.02-5.35L362.02-5.35Q360.17-2.2 358.04-0.93 355.92 0.35 353.07 0.35L353.07 0.35ZM381.92-25.25Q382.62-25.25 384.52-24.9L384.52-24.9 384.52-23Q383.06-23.25 382.02-23.25L382.02-23.25Q379.17-23.25 377.42-21.85L377.42-21.85Q376.67-21.2 375.81-20.18 374.97-19.15 374.37-18L374.37-18 374.37-0.05 372.27-0.05 372.27-18.1Q372.27-20.3 371.81-21.58 371.37-22.85 370.42-24.05L370.42-24.05 371.81-25.4Q372.92-24.35 373.59-23.03 374.27-21.7 374.37-20.25L374.37-20.25Q375.02-21.55 375.92-22.6 376.81-23.65 377.72-24.2L377.72-24.2Q379.42-25.25 381.92-25.25L381.92-25.25ZM417.16-34.5Q421.91-34.2 425.51-31.95 429.11-29.7 431.06-25.88 433.01-22.05 433.01-17.1L433.01-17.1Q433.01-11.9 430.91-7.9 428.81-3.9 424.96-1.73 421.11 0.45 416.11 0.45L416.11 0.45 413.01 0.45Q411.26 0.45 409.79 0.38 408.31 0.3 406.21 0.15L406.21 0.15 404.16 0 404.16-34.55 417.16-34.5ZM413.96-1.5Q422.01-1.5 426.44-5.55 430.86-9.6 430.86-16.95L430.86-16.95Q430.86-23.85 427.09-28.03 423.31-32.2 416.71-32.55L416.71-32.55 406.26-32.55 406.26-1.75 408.76-1.65Q413.86-1.5 413.96-1.5L413.96-1.5ZM440.31 0L440.31-25 442.56-25 442.56 0 440.31 0ZM441.41-28.75Q440.61-28.75 440.11-29.25 439.61-29.75 439.61-30.55L439.61-30.55Q439.61-31.35 440.11-31.85 440.61-32.35 441.41-32.35L441.41-32.35Q442.21-32.35 442.73-31.85 443.26-31.35 443.26-30.55L443.26-30.55Q443.26-29.75 442.73-29.25 442.21-28.75 441.41-28.75L441.41-28.75ZM461.56 13.05Q456.06 13.05 453.11 10.93 450.15 8.8 450.15 3.8L450.15 3.8Q450.15 3 450.4 0.75L450.4 0.75Q450.5 0.2 450.61-0.8L450.61-0.8Q449.56-1.55 448.93-2.73 448.31-3.9 448.31-5.25L448.31-5.25Q448.31-6.65 449-8.08 449.7-9.5 451.45-10.25L451.45-10.25Q452.11-10.55 452.81-10.63 453.5-10.7 455.11-10.75L455.11-10.75Q452.81-13 452.81-16.75L452.81-16.75Q452.81-19.5 454.03-21.53 455.25-23.55 457.33-24.6 459.4-25.65 462-25.65L462-25.65Q463.9-25.65 465.5-24.95L465.5-24.95 473.61-24.95 473.61-23.1 468.31-23.4Q469.81-22.1 470.5-20.5 471.2-18.9 471.2-16.85L471.2-16.85Q471.2-12.75 468.68-10.45 466.15-8.15 462-8.15L462-8.15Q459.2-8.15 457.15-9.25L457.15-9.25Q456.06-9.35 455.06-9.35L455.06-9.35Q454.06-9.35 453.25-9.15L453.25-9.15Q452.15-8.85 451.28-7.83 450.4-6.8 450.4-5.3L450.4-5.3Q450.4-3.6 451.65-2.8 452.9-2 455.5-2L455.5-2 459-2.1 463.31-2.2Q468.4-2.2 471.33-0.43 474.25 1.35 474.25 5.05L474.25 5.05Q474.25 9.2 470.63 11.13 467 13.05 461.56 13.05L461.56 13.05ZM462.11-10.05Q465.4-10.05 467.25-12 469.11-13.95 469.11-16.8L469.11-16.8Q469.11-19.95 467.08-21.85 465.06-23.75 461.95-23.75L461.95-23.75Q458.75-23.75 456.83-21.8 454.9-19.85 454.9-16.8L454.9-16.8Q454.9-13.65 456.95-11.85 459-10.05 462.11-10.05L462.11-10.05ZM461.45 11.15Q466.15 11.15 469.15 9.7 472.15 8.25 472.15 5.15L472.15 5.15Q472.15-0.25 462.86-0.25L462.86-0.25Q461.65-0.25 459.75-0.15L459.75-0.15 456.7-0.1Q455.25-0.1 454.06-0.15 452.86-0.2 452.25-0.35L452.25-0.35Q452.31-0.1 452.31 0.65L452.31 0.65 452.25 3.2Q452.25 7.8 454.58 9.47 456.9 11.15 461.45 11.15L461.45 11.15ZM479.35 0L479.35-25 481.6-25 481.6 0 479.35 0ZM480.45-28.75Q479.65-28.75 479.15-29.25 478.65-29.75 478.65-30.55L478.65-30.55Q478.65-31.35 479.15-31.85 479.65-32.35 480.45-32.35L480.45-32.35Q481.25-32.35 481.78-31.85 482.3-31.35 482.3-30.55L482.3-30.55Q482.3-29.75 481.78-29.25 481.25-28.75 480.45-28.75L480.45-28.75ZM496.5 0.65Q493 0.65 491.32-1.23 489.65-3.1 489.65-7L489.65-7 489.65-31.15 491.75-31.15 491.75-24.75 499.8-24.75 499.8-22.75 491.75-22.75 491.75-7Q491.75-3.8 493.17-2.53 494.6-1.25 496.45-1.25L496.45-1.25Q498.15-1.25 499.55-2L499.55-2 500.6-0.25Q499.1 0.65 496.5 0.65L496.5 0.65ZM522.95 0.25Q521.85-0.65 521.37-1.63 520.9-2.6 520.35-4.4L520.35-4.4Q518.55 0.45 512.35 0.45L512.35 0.45Q508.35 0.45 506.15-1.55 503.95-3.55 503.95-7.15L503.95-7.15Q503.95-11 506.6-12.95 509.25-14.9 514.4-14.9L514.4-14.9 520.25-14.9 520.25-17.1Q520.25-20.45 518.9-21.98 517.55-23.5 514.45-23.5L514.45-23.5Q512.35-23.5 510.27-22.85 508.2-22.2 506.55-20.95L506.55-20.95 505.55-22.5Q509.3-25.5 514.5-25.5L514.5-25.5Q518.5-25.5 520.42-23.58 522.35-21.65 522.35-17.65L522.35-17.65 522.35-7.05Q522.35-3.15 524.2-1L524.2-1 522.95 0.25ZM512.4-1.45Q515.95-1.45 518.1-3.48 520.25-5.5 520.25-8.75L520.25-8.75 520.25-13 514.65-13Q510.1-13 508.07-11.6 506.05-10.2 506.05-7.2L506.05-7.2Q506.05-4.4 507.75-2.93 509.45-1.45 512.4-1.45L512.4-1.45ZM530.69-0.05L530.69-36.35 532.79-36.35 532.79-0.05 530.69-0.05ZM564.29 1.05Q561.89 1.05 559.39 0.05 556.89-0.95 555.01-2.75 553.14-4.55 552.44-6.85L552.44-6.85 554.39-7.6Q555.49-4.55 558.34-2.75 561.19-0.95 564.29-0.95L564.29-0.95Q566.74-0.95 568.76-2.02 570.79-3.1 571.96-5 573.14-6.9 573.14-9.25L573.14-9.25Q573.14-11.65 571.49-13.33 569.84-15 566.09-17.2L566.09-17.2 563.49-18.65Q560.74-20.1 559.21-21.13 557.69-22.15 556.74-23.58 555.79-25 555.79-27.05L555.79-27.05Q555.79-29.4 556.99-31.23 558.19-33.05 560.26-34.02 562.34-35 564.84-35L564.84-35Q567.99-35 570.14-33.5 572.29-32 572.34-29.55L572.34-29.55 570.14-29.65Q569.99-31.3 568.31-32.15 566.64-33 564.69-33L564.69-33Q562.89-33 561.34-32.23 559.79-31.45 558.84-30.1 557.89-28.75 557.89-27.2L557.89-27.2Q557.89-24.8 559.71-23.28 561.54-21.75 564.74-20.15L564.74-20.15Q566.04-19.55 566.74-19.1L566.74-19.1Q571.24-16.4 573.29-14.23 575.34-12.05 575.34-9.2L575.34-9.2Q575.34-6.2 573.81-3.85 572.29-1.5 569.76-0.23 567.24 1.05 564.29 1.05L564.29 1.05ZM582.04-36.35L584.14-36.35 584.14-19.9Q585.79-22.65 587.91-23.95 590.04-25.25 593.19-25.25L593.19-25.25Q600.99-25.25 600.99-17.4L600.99-17.4 600.99-0.05 598.89-0.05 598.89-16.85Q598.89-20.1 597.41-21.73 595.94-23.35 592.89-23.35L592.89-23.35Q590.04-23.35 588.14-22.03 586.24-20.7 584.14-17.9L584.14-17.9 584.14-0.05 582.04-0.05 582.04-36.35ZM608.98 0L608.98-25 611.23-25 611.23 0 608.98 0ZM610.08-28.75Q609.28-28.75 608.78-29.25 608.28-29.75 608.28-30.55L608.28-30.55Q608.28-31.35 608.78-31.85 609.28-32.35 610.08-32.35L610.08-32.35Q610.88-32.35 611.41-31.85 611.93-31.35 611.93-30.55L611.93-30.55Q611.93-29.75 611.41-29.25 610.88-28.75 610.08-28.75L610.08-28.75ZM619.98-11.75Q619.98-8.05 621.81-4.73 623.63-1.4 629.13-1.4L629.13-1.4Q631.18-1.4 632.98-1.98 634.78-2.55 637.03-3.8L637.03-3.8 637.98-2.25Q636.03-0.95 633.68-0.23 631.33 0.5 628.83 0.5L628.83 0.5Q623.63 0.5 620.76-2.8 617.88-6.1 617.88-11.65L617.88-11.65Q617.88-15.6 619.23-18.7 620.58-21.8 623.06-23.53 625.53-25.25 628.88-25.25L628.88-25.25Q631.78-25.25 634.06-23.93 636.33-22.6 637.61-20.28 638.88-17.95 638.88-14.95L638.88-14.95Q638.88-14.05 638.68-11.75L638.68-11.75 619.98-11.75ZM620.08-13.65L636.68-13.65Q636.78-14.2 636.78-15.05L636.78-15.05Q636.78-17.45 635.71-19.38 634.63-21.3 632.83-22.38 631.03-23.45 628.88-23.45L628.88-23.45Q625.38-23.45 622.96-20.75 620.53-18.05 620.08-13.65L620.08-13.65ZM645.33-0.05L645.33-36.35 647.43-36.35 647.43-0.05 645.33-0.05ZM664.53 0.45Q661.23 0.45 658.85-1.25 656.48-2.95 655.25-5.85 654.03-8.75 654.03-12.25L654.03-12.25Q654.03-16.05 655.43-19 656.83-21.95 659.55-23.6 662.28-25.25 666.08-25.25L666.08-25.25Q667.28-25.25 669.23-25.1 671.18-24.95 672.58-24.75L672.58-24.75 672.58-36.4 674.68-36.4 674.68-7.05Q674.68-3.25 676.53-1L676.53-1 675.28 0.25Q673.33-1.3 672.73-4.7L672.73-4.7Q671.68-2.05 669.48-0.8 667.28 0.45 664.53 0.45L664.53 0.45ZM664.68-1.5Q667.08-1.5 668.98-2.7 670.88-3.9 671.83-5.85L671.83-5.85Q672.58-7.3 672.58-9.3L672.58-9.3 672.58-22.75Q669.58-23.1 668.28-23.2 666.98-23.3 665.63-23.3L665.63-23.3Q662.78-23.3 660.63-21.85 658.48-20.4 657.35-17.93 656.23-15.45 656.23-12.4L656.23-12.4Q656.23-9.45 657.2-6.98 658.18-4.5 660.1-3 662.03-1.5 664.68-1.5L664.68-1.5Z" opacity="1" transform="matrix(1,0,0,1,0,0)" fill="#ffffff" class="undefined-text-1" data-fill-palette-color="secondary" id="text-1"></path></svg></g></svg></g></svg></g></svg></g><g transform="matrix(1,0,0,1,415.87191122471853,0)"><svg viewBox="0 0 216.0928514755268 216.0928514755268" height="216.0928514755268" width="216.0928514755268"><g><svg viewBox="0 0 216.0928514755268 216.0928514755268" height="216.0928514755268" width="216.0928514755268"><g transform="matrix(1,0,0,1,57.21857224834216,57.112852189669255)"><svg viewBox="0 0 101.65570697884247 101.86714709618829" height="101.86714709618829" width="101.65570697884247"><g><svg xmlns="http://www.w3.org/2000/svg" xmlns:xlink="http://www.w3.org/1999/xlink" version="1.1" x="0" y="0" viewBox="3.3640003204345703 3.267000198364258 93.27100372314453 93.46500396728516" enable-background="new 0 0 100 100" xml:space="preserve" height="101.86714709618829" width="101.65570697884247" class="icon-s-0" data-fill-palette-color="accent" id="s-0"><path d="M78.236 78.453c1.551-1.551 4.068-1.551 5.619 0l12.78 12.781c-2.172-7.881-4.797-21.479-4.797-41.194 0-19.477 2.562-32.986 4.718-40.906L83.855 21.835c-1.551 1.551-4.068 1.553-5.619 0s-1.551-4.068 0-5.619L91.083 3.369c-7.878 2.097-21.407 4.605-41.074 4.605-19.986 0-33.637-2.592-41.454-4.707l12.947 12.948c1.552 1.551 1.552 4.066 0 5.619-1.552 1.553-4.068 1.551-5.62 0L3.437 9.389c2.075 7.956 4.507 21.384 4.507 40.651 0 19.497-2.488 33.015-4.58 40.933l12.519-12.52c1.552-1.551 4.068-1.551 5.62 0 1.552 1.551 1.552 4.068 0 5.621L8.843 96.732c7.856-2.101 21.408-4.627 41.166-4.627 19.442 0 32.876 2.446 40.786 4.524L78.236 84.074C76.686 82.521 76.686 80.004 78.236 78.453zM76.217 70.654l-6.488-6.488c-1.553-1.551-4.067-1.551-5.619 0-1.553 1.555-1.551 4.07 0 5.621l6.839 6.838c-4.759-1.027-11.759-2.004-21.164-2.004-9.021 0-15.831 0.898-20.57 1.879l6.712-6.713c1.552-1.551 1.553-4.066 0-5.621-1.552-1.551-4.067-1.551-5.619 0l-7.178 7.18c1.043-4.774 2.051-11.844 2.051-21.331 0-9.104-0.929-15.978-1.925-20.736l6.585 6.584c1.551 1.551 4.067 1.551 5.619 0 1.552-1.553 1.552-4.068 0-5.621l-6.84-6.84c4.761 1.027 11.765 2.008 21.165 2.008 9.399 0 16.405-0.98 21.165-2.008l-6.84 6.84c-1.551 1.553-1.553 4.068 0 5.621 1.552 1.551 4.066 1.551 5.619 0l6.488-6.489c-1.02 4.757-1.964 11.599-1.964 20.642C74.253 59.057 75.197 65.9 76.217 70.654z" fill="#ffffff" data-fill-palette-color="accent"></path></svg></g></svg></g><g><path d="M6.805 139.491L23.707 134.776 24.416 137.317 7.514 142.032ZM9.94 148.635L26.043 141.663 27.17 144.266 18.713 154.945 29.728 150.176 30.764 152.569 14.661 159.541 13.724 157.376 22.67 145.998 10.988 151.055ZM22.003 171.777C21.14 170.486 20.686 169.141 20.643 167.74 20.6 166.34 20.966 164.977 21.74 163.653 22.513 162.337 23.665 161.167 25.198 160.141V160.141C26.709 159.13 28.229 158.52 29.758 158.311 31.287 158.102 32.692 158.287 33.974 158.866 35.256 159.446 36.314 160.358 37.148 161.605V161.605C37.92 162.757 38.421 163.971 38.651 165.246V165.246L36.359 166.42C36.286 165.822 36.168 165.282 36.006 164.8 35.843 164.319 35.603 163.841 35.285 163.366V163.366C34.337 161.949 33.096 161.187 31.563 161.079 30.035 160.968 28.452 161.46 26.815 162.556V162.556C25.171 163.656 24.11 164.933 23.63 166.388 23.145 167.846 23.377 169.284 24.326 170.701V170.701C24.901 171.562 25.692 172.29 26.698 172.886V172.886L24.755 174.546C23.74 173.924 22.822 173.001 22.003 171.777ZM28.174 179.328L41.535 167.953 43.245 169.961 29.884 181.336ZM34.893 186.328L46.5 173.168 50.732 176.901C51.812 177.854 52.543 178.967 52.923 180.241 53.304 181.514 53.294 182.855 52.893 184.262 52.502 185.669 51.709 187.049 50.516 188.402V188.402C49.317 189.761 48.045 190.722 46.698 191.286 45.352 191.859 44.023 192.037 42.712 191.818 41.401 191.599 40.205 191.014 39.125 190.061V190.061ZM38.464 186.267L40.547 188.103C41.711 189.131 42.966 189.498 44.311 189.207 45.656 188.907 46.997 187.998 48.336 186.48V186.48C49.67 184.967 50.403 183.525 50.533 182.153 50.654 180.782 50.132 179.584 48.968 178.556V178.556L46.885 176.72ZM49.962 198.48L59.191 183.556 67.36 188.607 66.093 190.656 60.167 186.992 57.665 191.038 62.287 193.896 61.021 195.945 56.399 193.087 53.472 197.819 59.567 201.588 58.301 203.636ZM63.943 206.253L70.642 190.035 73.264 191.118 74.633 204.671 79.216 193.577 81.626 194.572 74.927 210.79 72.747 209.89 71.241 195.494 66.381 207.26ZM88.721 214.452C87.203 214.128 85.94 213.479 84.934 212.505 83.927 211.53 83.24 210.298 82.872 208.809 82.51 207.327 82.521 205.684 82.905 203.88V203.88C83.284 202.102 83.949 200.605 84.9 199.39 85.852 198.175 86.989 197.328 88.312 196.851 89.635 196.373 91.03 196.29 92.496 196.603V196.603C93.853 196.892 95.058 197.414 96.111 198.167V198.167L95.286 200.607C94.817 200.229 94.356 199.924 93.904 199.691 93.451 199.459 92.946 199.284 92.388 199.165V199.165C90.72 198.809 89.299 199.127 88.124 200.118 86.951 201.103 86.159 202.559 85.748 204.486V204.486C85.335 206.42 85.464 208.076 86.134 209.453 86.802 210.837 87.97 211.707 89.638 212.063V212.063C90.65 212.278 91.725 212.25 92.862 211.977V211.977L92.625 214.521C91.463 214.782 90.162 214.759 88.721 214.452ZM98.588 215.521L99.611 198.004 109.199 198.564 109.059 200.968 102.104 200.562 101.826 205.312 107.251 205.628 107.111 208.033 101.686 207.716 101.361 213.27 108.515 213.688 108.375 216.093ZM126.945 214.482C126.109 214.632 125.233 214.691 124.317 214.66 123.402 214.629 122.623 214.519 121.983 214.33V214.33L121.793 211.412C123.519 212.053 125.163 212.233 126.724 211.953V211.953C127.645 211.788 128.33 211.473 128.779 211.008 129.236 210.549 129.401 209.963 129.273 209.251V209.251C129.137 208.494 128.759 207.925 128.138 207.544 127.517 207.163 126.481 206.799 125.03 206.453V206.453C123.908 206.175 122.996 205.88 122.293 205.568 121.588 205.25 121.012 204.817 120.564 204.271 120.108 203.725 119.802 203.015 119.646 202.14V202.14C119.478 201.206 119.568 200.337 119.916 199.533 120.265 198.736 120.835 198.06 121.626 197.507 122.418 196.961 123.389 196.585 124.538 196.379V196.379C126.106 196.098 127.619 196.156 129.08 196.555V196.555L129.307 199.346C127.692 198.799 126.186 198.652 124.788 198.902V198.902C123.92 199.058 123.278 199.352 122.863 199.783 122.449 200.215 122.306 200.793 122.436 201.518V201.518C122.528 202.028 122.745 202.43 123.088 202.726 123.424 203.023 123.847 203.257 124.356 203.429 124.859 203.602 125.666 203.834 126.777 204.127V204.127C128.399 204.565 129.626 205.113 130.459 205.773 131.284 206.427 131.805 207.355 132.02 208.557V208.557C132.288 210.052 131.975 211.332 131.08 212.396 130.185 213.453 128.806 214.148 126.945 214.482ZM138.626 211.367L132.987 194.75 142.083 191.663 142.857 193.944 136.259 196.183 137.788 200.689 142.934 198.942 143.708 201.223 138.562 202.969 140.35 208.238 147.136 205.935 147.91 208.216ZM159.579 202.709C158.206 203.434 156.82 203.745 155.423 203.642 154.026 203.539 152.709 203.034 151.472 202.127 150.244 201.222 149.199 199.954 148.338 198.322V198.322C147.489 196.715 147.04 195.139 146.991 193.597 146.942 192.055 147.272 190.676 147.982 189.461 148.691 188.247 149.709 187.289 151.035 186.589V186.589C152.261 185.942 153.52 185.569 154.812 185.473V185.473L155.743 187.874C155.14 187.884 154.591 187.946 154.095 188.057 153.599 188.169 153.098 188.358 152.594 188.625V188.625C151.086 189.421 150.198 190.576 149.932 192.09 149.663 193.597 149.988 195.223 150.908 196.966V196.966C151.831 198.714 152.991 199.903 154.388 200.531 155.788 201.165 157.242 201.083 158.75 200.287V200.287C159.666 199.804 160.472 199.093 161.17 198.155V198.155L162.619 200.26C161.895 201.205 160.881 202.021 159.579 202.709ZM172.948 193.724C171.274 194.999 169.644 195.448 168.057 195.073 166.469 194.697 164.982 193.599 163.595 191.778V191.778L157.123 183.282 159.213 181.69 165.245 189.607C166.306 191.001 167.314 191.918 168.267 192.36 169.226 192.797 170.276 192.582 171.416 191.713V191.713C172.202 191.114 172.668 190.471 172.813 189.786 172.959 189.09 172.87 188.378 172.548 187.648 172.22 186.921 171.712 186.107 171.025 185.204V185.204L164.993 177.287 167.091 175.689 173.563 184.184C174.95 186.005 175.614 187.731 175.555 189.361 175.495 190.991 174.626 192.445 172.948 193.724ZM182.774 184.616L169.813 172.788 173.026 169.266C174.265 167.909 175.567 167.152 176.931 166.996 178.296 166.839 179.637 167.363 180.955 168.566V168.566C181.725 169.268 182.257 170.063 182.551 170.952 182.845 171.84 182.882 172.74 182.66 173.652V173.652L190.496 176.154 188.457 178.389 181.461 176.088C181.409 176.175 181.286 176.324 181.094 176.535V176.535L179.611 178.159 184.552 182.668ZM177.884 176.583L179.165 175.179C179.93 174.341 180.312 173.543 180.31 172.787 180.309 172.041 179.926 171.318 179.161 170.621V170.621C178.382 169.909 177.618 169.585 176.869 169.647 176.116 169.715 175.357 170.167 174.592 171.005V171.005L173.311 172.41ZM193.79 171.575L179.499 161.393 181.03 159.245 195.321 169.427ZM200.331 160.754L186.945 153.683 184.932 157.493 182.802 156.368 188.051 146.432 190.18 147.557 188.163 151.377 201.549 158.448ZM191.837 135.593L192.756 132.888 200.427 141.003 207.693 143.472 206.854 145.941 199.588 143.472 188.555 145.252 189.474 142.548 197.538 141.398Z" fill="#ffffff" data-fill-palette-color="accent"></path><path d="M18.609 84.847L2.032 80.228 2.724 77.744 19.301 82.363ZM21.224 77.165L5.433 70.326 6.536 67.778 19.852 66.657 9.048 61.978 10.064 59.631 25.856 66.469 24.934 68.597 10.786 69.835 22.249 74.799ZM32.714 56.523C31.865 57.792 30.815 58.706 29.563 59.266 28.311 59.825 26.939 60.002 25.449 59.795 23.959 59.589 22.466 58.986 20.971 57.986V57.986C19.482 56.991 18.356 55.839 17.595 54.531 16.833 53.223 16.478 51.88 16.529 50.502 16.572 49.126 17.004 47.822 17.827 46.592V46.592C18.583 45.461 19.493 44.554 20.558 43.869V43.869L22.477 45.511C21.97 45.803 21.527 46.113 21.148 46.442 20.772 46.766 20.429 47.159 20.119 47.622V47.622C19.19 49.012 18.96 50.424 19.431 51.856 19.906 53.283 20.949 54.535 22.559 55.612V55.612C24.164 56.685 25.717 57.169 27.217 57.062 28.721 56.95 29.937 56.199 30.867 54.809V54.809C31.431 53.965 31.795 52.979 31.958 51.851V51.851L34.185 52.981C34.004 54.146 33.514 55.326 32.714 56.523ZM37.528 49.618L24.427 38.459 26.099 36.497 39.199 47.656ZM43.108 43.778L31.732 30.866 35.884 27.208C36.939 26.278 38.111 25.706 39.399 25.491 40.681 25.281 41.984 25.455 43.308 26.013 44.631 26.572 45.878 27.516 47.049 28.845V28.845C48.216 30.169 48.993 31.523 49.381 32.906 49.773 34.294 49.781 35.609 49.407 36.85 49.031 38.1 48.316 39.19 47.26 40.12V40.12ZM43.483 40.304L45.529 38.502C46.674 37.493 47.186 36.317 47.064 34.974 46.938 33.626 46.221 32.21 44.914 30.727V30.727C43.602 29.238 42.288 28.349 40.971 28.059 39.65 27.763 38.417 28.12 37.272 29.129V29.129L35.225 30.932ZM56.485 32.914L47.439 18.275 55.448 13.325 56.688 15.331 50.872 18.926 53.331 22.905 57.869 20.101 59.109 22.108 54.571 24.912 57.438 29.552 63.424 25.853 64.664 27.859ZM68.71 26.054L62.142 10.148 64.709 9.088 75.045 17.559 70.551 6.675 72.915 5.699 79.483 21.605 77.34 22.49 66.326 13.524 71.093 25.07ZM91.33 19.251C89.838 19.57 88.447 19.494 87.159 19.022 85.871 18.551 84.765 17.722 83.839 16.536 82.914 15.349 82.264 13.877 81.888 12.118V12.118C81.514 10.366 81.509 8.756 81.874 7.287 82.239 5.818 82.92 4.607 83.918 3.655 84.907 2.697 86.126 2.063 87.573 1.754V1.754C88.903 1.47 90.188 1.453 91.429 1.704V1.704L91.661 4.219C91.095 4.076 90.561 3.99 90.059 3.961 89.564 3.931 89.044 3.974 88.499 4.091V4.091C86.864 4.44 85.716 5.292 85.056 6.648 84.402 8.002 84.277 9.627 84.682 11.521V11.521C85.085 13.41 85.862 14.838 87.012 15.807 88.169 16.775 89.564 17.084 91.2 16.735V16.735C92.192 16.523 93.14 16.069 94.044 15.374V15.374L94.853 17.735C93.913 18.445 92.738 18.95 91.33 19.251ZM99.334 17.732L98.324 0.552 107.724 0 107.862 2.355 101.036 2.756 101.31 7.426 106.636 7.113 106.775 9.468 101.449 9.781 101.769 15.226 108.794 14.813 108.932 17.168ZM124.751 19.302C123.929 19.153 123.103 18.907 122.276 18.562 121.447 18.223 120.768 17.855 120.24 17.456V17.456L121.059 14.711C122.424 15.888 123.874 16.615 125.409 16.892V16.892C126.31 17.054 127.048 17.002 127.622 16.735 128.197 16.461 128.547 15.978 128.672 15.286V15.286C128.806 14.541 128.654 13.89 128.215 13.332 127.771 12.767 126.942 12.074 125.728 11.255V11.255C124.79 10.621 124.052 10.039 123.514 9.511 122.983 8.977 122.602 8.382 122.369 7.727 122.137 7.071 122.098 6.316 122.252 5.46V5.46C122.419 4.539 122.8 3.772 123.396 3.158 123.987 2.537 124.741 2.11 125.66 1.878 126.572 1.644 127.592 1.63 128.722 1.833V1.833C130.257 2.11 131.627 2.681 132.833 3.546V3.546L132.084 6.182C130.79 5.133 129.461 4.485 128.096 4.239V4.239C127.241 4.085 126.547 4.135 126.016 4.389 125.484 4.644 125.154 5.127 125.026 5.839V5.839C124.936 6.336 124.998 6.778 125.211 7.167 125.424 7.556 125.737 7.916 126.149 8.247 126.555 8.576 127.215 9.066 128.129 9.716V9.716C129.474 10.674 130.413 11.595 130.948 12.48 131.488 13.373 131.652 14.408 131.44 15.583V15.583C131.175 17.052 130.449 18.121 129.263 18.791 128.077 19.46 126.573 19.63 124.751 19.302ZM134.85 21.309L140.399 5.019 149.312 8.056 148.551 10.288 142.079 8.084 140.57 12.512 145.62 14.232 144.86 16.465 139.81 14.745 138.051 19.908 144.712 22.177 143.951 24.409ZM153.567 29.785C152.218 29.071 151.202 28.12 150.517 26.931 149.832 25.743 149.516 24.397 149.569 22.893 149.621 21.39 150.068 19.843 150.91 18.254V18.254C151.748 16.67 152.778 15.433 154.001 14.541 155.224 13.649 156.523 13.158 157.9 13.069 159.273 12.97 160.614 13.267 161.922 13.959V13.959C163.124 14.595 164.12 15.408 164.911 16.397V16.397L163.473 18.474C163.131 18 162.777 17.591 162.411 17.247 162.051 16.906 161.625 16.606 161.132 16.345V16.345C159.654 15.563 158.227 15.479 156.85 16.094 155.479 16.712 154.341 17.878 153.434 19.59V19.59C152.531 21.297 152.209 22.891 152.468 24.372 152.734 25.856 153.605 26.989 155.083 27.772V27.772C155.98 28.247 156.998 28.508 158.137 28.555V28.555L157.242 30.885C156.065 30.825 154.84 30.458 153.567 29.785ZM165.138 37.627C163.498 36.375 162.65 34.948 162.596 33.345 162.538 31.748 163.191 30.056 164.555 28.268V28.268L170.907 19.944 172.957 21.508 167.033 29.27C165.991 30.636 165.386 31.827 165.22 32.844 165.053 33.86 165.529 34.795 166.648 35.649V35.649C167.418 36.236 168.148 36.51 168.838 36.469 169.529 36.428 170.177 36.159 170.782 35.661 171.383 35.169 172.022 34.479 172.699 33.593V33.593L178.622 25.831 180.679 27.401 174.327 35.725C172.962 37.513 171.5 38.588 169.938 38.949 168.379 39.319 166.779 38.879 165.138 37.627ZM173.798 44.745L186.514 33.149 189.659 36.598C190.875 37.932 191.497 39.273 191.524 40.623 191.556 41.967 190.925 43.23 189.63 44.41V44.41C188.88 45.094 188.057 45.54 187.159 45.748 186.262 45.955 185.379 45.912 184.509 45.619V45.619L181.37 53.048 179.365 50.849 182.241 44.225C182.164 44.17 182.031 44.039 181.844 43.833V43.833L180.382 42.23 175.535 46.65ZM182.073 40.687L183.334 42.07C184.085 42.894 184.826 43.336 185.555 43.398 186.295 43.461 187.039 43.15 187.79 42.466V42.466C188.55 41.773 188.932 41.055 188.938 40.313 188.944 39.581 188.571 38.803 187.82 37.979V37.979L186.559 36.596ZM183.855 56.63L197.88 46.657 199.374 48.758 185.348 58.73ZM189.565 66.12L202.705 59.202 200.739 55.468 202.826 54.369 207.954 64.109 205.867 65.208 203.897 61.465 190.756 68.384ZM213.162 78.256L214.061 80.915 203.248 79.172 196.12 81.583 195.3 79.16 202.428 76.749 209.956 68.781 210.856 71.439 205.263 77.146Z" fill="#ffffff" data-fill-palette-color="accent"></path><path d="M2.321 110.508C2.321 106.806 5.322 103.805 9.024 103.805 12.726 103.805 15.727 106.806 15.727 110.508 15.727 114.21 12.726 117.211 9.024 117.211 5.322 117.211 2.321 114.21 2.321 110.508ZM200.195 110.508C200.195 106.806 203.196 103.805 206.898 103.805 210.6 103.805 213.601 106.806 213.601 110.508 213.601 114.21 210.6 117.211 206.898 117.211 203.196 117.211 200.195 114.21 200.195 110.508Z" fill="#ffffff" data-fill-palette-color="accent"></path></g></svg></g></svg></g></svg></g><defs></defs></svg><rect width="395.52" height="135.24337061201018" fill="none" stroke="none" visibility="hidden"></rect></g></svg></g></svg>